<?xml version="1.0" standalone="no"?>
<!DOCTYPE svg PUBLIC "-//W3C//DTD SVG 20010904//EN"
 "http://www.w3.org/TR/2001/REC-SVG-20010904/DTD/svg10.dtd">
<svg version="1.0" xmlns="http://www.w3.org/2000/svg"
 width="96.000000pt" height="96.000000pt" viewBox="0 0 96.000000 96.000000"
 preserveAspectRatio="xMidYMid meet">
<metadata>
Created by potrace 1.14, written by Peter Selinger 2001-2017
</metadata>
<g transform="translate(0.000000,96.000000) scale(0.100000,-0.100000)"
fill="#000000" stroke="none">
<path d="M190 870 l-125 -45 -1 -273 c0 -150 3 -275 8 -278 5 -3 63 13 129 37
136 48 162 46 174 -11 11 -49 91 -126 145 -140 53 -14 133 -7 166 15 13 8 27
15 32 15 5 0 40 -32 78 -70 37 -39 74 -70 81 -70 31 0 18 24 -52 94 l-74 75
27 48 27 48 0 294 c1 230 -2 294 -12 298 -7 3 -65 -14 -128 -37 l-114 -42
-118 44 -118 44 -125 -46z"/>
</g>
</svg>
